<?xml version="1.0" encoding="utf-8"?>
<!-- Generator: Adobe Illustrator 28.3.0, SVG Export Plug-In . SVG Version: 6.00 Build 0)  -->
<svg version="1.1" id="Capa_2_00000156581481616673794120000013363099953202426812_"
	 xmlns="http://www.w3.org/2000/svg" xmlns:xlink="http://www.w3.org/1999/xlink" x="0px" y="0px" viewBox="0 0 10 8"
	 style="enable-background:new 0 0 10 8;" xml:space="preserve">
<style type="text/css">
	.st0{fill:#323160;}
</style>
<g>
	<path class="st0" d="M6.2,7.5c-0.4,0-0.8-0.1-1.1-0.2C4.7,7.2,4.4,7,4.1,6.7C3.9,6.5,3.7,6.2,3.5,5.9C3.4,5.6,3.3,5.2,3.3,4.8
		c0-0.4,0.1-0.8,0.2-1.1c0.1-0.3,0.3-0.6,0.6-0.9s0.6-0.4,0.9-0.6c0.3-0.1,0.7-0.2,1.1-0.2S7,2.1,7.3,2.3C7.7,2.4,8,2.6,8.2,2.8
		c0.3,0.2,0.5,0.5,0.6,0.9C9,4,9.1,4.4,9.1,4.8S9,5.6,8.8,5.9C8.7,6.2,8.5,6.5,8.2,6.8C8,7,7.7,7.2,7.3,7.3C7,7.5,6.6,7.5,6.2,7.5z
		 M6.2,6.7c0.3,0,0.5,0,0.7-0.1c0.2-0.1,0.4-0.2,0.6-0.4C7.7,6,7.8,5.8,7.9,5.5C8,5.3,8.1,5.1,8.1,4.8S8,4.3,7.9,4
		C7.8,3.8,7.7,3.6,7.5,3.5C7.4,3.3,7.2,3.2,6.9,3.1C6.7,3,6.5,2.9,6.2,2.9S5.7,3,5.5,3.1C5.2,3.2,5,3.3,4.9,3.5S4.6,3.8,4.5,4
		C4.4,4.3,4.3,4.5,4.3,4.8c0,0.3,0,0.5,0.1,0.7C4.6,5.8,4.7,6,4.9,6.1C5,6.3,5.2,6.4,5.5,6.5C5.7,6.6,5.9,6.7,6.2,6.7z"/>
	<path class="st0" d="M5.5,2.3L5.2,0.5c0,0,1.2,0.7,1.7,1.8C6.8,2.2,6.3,2.2,5.5,2.3z"/>
	<polygon class="st0" points="2.9,5 0.9,2.7 3.8,4.4 3.8,4.8 2.6,6 	"/>
</g>
</svg>
