<?xml version="1.0" encoding="UTF-8"?><svg id="Capa_2" xmlns="http://www.w3.org/2000/svg" viewBox="0 0 208 102.22"><defs><style>.cls-1{fill:#323160;stroke-width:0px;}</style></defs><g id="Capa_1-2"><path class="cls-1" d="M76.21,102.22c-6.01,0-11.55-.99-16.61-2.97-5.06-1.98-9.46-4.75-13.2-8.3-3.74-3.56-6.64-7.74-8.69-12.54-2.05-4.8-3.08-10.06-3.08-15.79s1.03-10.98,3.08-15.79c2.05-4.8,4.95-8.98,8.69-12.54,3.74-3.56,8.14-6.32,13.2-8.3,5.06-1.98,10.56-2.97,16.5-2.97s11.53.99,16.56,2.97c5.02,1.98,9.4,4.75,13.14,8.3,3.74,3.56,6.64,7.74,8.69,12.54,2.05,4.8,3.08,10.07,3.08,15.79s-1.03,11-3.08,15.84c-2.05,4.84-4.95,9.02-8.69,12.54-3.74,3.52-8.12,6.27-13.14,8.25-5.02,1.98-10.51,2.97-16.45,2.97ZM76.1,89.68c3.89,0,7.48-.66,10.78-1.98,3.3-1.32,6.16-3.21,8.58-5.67,2.42-2.46,4.31-5.32,5.67-8.58,1.36-3.26,2.04-6.88,2.04-10.83s-.68-7.57-2.04-10.83c-1.36-3.26-3.25-6.12-5.67-8.58-2.42-2.46-5.28-4.34-8.58-5.67-3.3-1.32-6.89-1.98-10.78-1.98s-7.46.66-10.73,1.98c-3.26,1.32-6.12,3.21-8.58,5.67-2.46,2.46-4.36,5.32-5.72,8.58-1.36,3.26-2.04,6.88-2.04,10.83s.68,7.48,2.04,10.78c1.36,3.3,3.24,6.18,5.67,8.63,2.42,2.46,5.28,4.34,8.58,5.67,3.3,1.32,6.89,1.98,10.78,1.98Z"/><path class="cls-1" d="M66,26.47L61.59,0s17.65,10.24,24,25.59c0,0-8.47-.53-19.59.88Z"/><polygon class="cls-1" points="28.24 65.94 0 32.41 41.82 57.12 41.82 63.12 23.82 80.41 28.24 65.94"/><path class="cls-1" d="M176.88,102.22c-6.01,0-11.77-.86-17.27-2.58-5.5-1.72-9.87-3.94-13.09-6.66l4.95-11.11c3.08,2.42,6.89,4.44,11.44,6.05,4.55,1.61,9.2,2.42,13.97,2.42,4.03,0,7.29-.44,9.79-1.32,2.49-.88,4.33-2.07,5.5-3.58,1.17-1.5,1.76-3.21,1.76-5.12s-.84-4.23-2.53-5.67c-1.69-1.43-3.87-2.57-6.54-3.41-2.68-.84-5.65-1.63-8.91-2.36-3.26-.73-6.53-1.6-9.79-2.58-3.27-.99-6.23-2.27-8.91-3.85-2.68-1.58-4.86-3.68-6.55-6.33-1.69-2.64-2.53-6.01-2.53-10.12s1.12-8.01,3.36-11.5c2.24-3.48,5.65-6.27,10.23-8.36,4.58-2.09,10.39-3.14,17.43-3.14,4.62,0,9.2.59,13.75,1.76,4.55,1.17,8.51,2.86,11.88,5.06l-4.51,11.11c-3.45-2.05-7-3.58-10.67-4.56-3.67-.99-7.19-1.49-10.56-1.49-3.96,0-7.17.48-9.62,1.43-2.46.95-4.25,2.2-5.39,3.74s-1.7,3.3-1.7,5.28c0,2.35.82,4.23,2.47,5.67,1.65,1.43,3.81,2.55,6.49,3.35,2.68.81,5.66,1.6,8.96,2.37,3.3.77,6.58,1.63,9.84,2.58,3.26.95,6.23,2.2,8.91,3.74,2.68,1.54,4.84,3.63,6.49,6.27,1.65,2.64,2.47,5.98,2.47,10.01s-1.12,7.9-3.35,11.38c-2.24,3.48-5.67,6.27-10.29,8.36-4.62,2.09-10.45,3.14-17.49,3.14Z"/><path class="cls-1" d="M164.46,26.47l-4.41-26.47s17.65,10.24,24,25.59c0,0-8.47-.53-19.59.88Z"/><polygon class="cls-1" points="140.82 50.76 112.58 17.24 154.4 41.94 154.4 47.94 136.4 65.24 140.82 50.76"/></g></svg>