<?xml version="1.0" encoding="UTF-8"?><svg id="Capa_2" xmlns="http://www.w3.org/2000/svg" viewBox="0 0 764.04 102.22"><defs><style>.cls-1{fill:#ffffff;stroke-width:0px;}</style></defs><g id="Capa_1-2"><path class="cls-1" d="M105.8,34.29c-3.74-3.56-8.12-6.32-13.14-8.3-2.51-.99-5.14-1.73-7.89-2.22C77.84,9.43,61.59,0,61.59,0l4.02,24.15c-2.07.47-4.07,1.08-6.01,1.84-5.06,1.98-9.46,4.75-13.2,8.3-3.74,3.56-6.64,7.74-8.69,12.54-.9,2.11-1.6,4.32-2.1,6.61L0,32.41l28.24,33.53-4.41,14.47,11.35-10.9c.5,3.12,1.34,6.09,2.54,8.9,2.05,4.8,4.95,8.98,8.69,12.54,3.74,3.56,8.14,6.33,13.2,8.3,5.06,1.98,10.6,2.97,16.61,2.97s11.42-.99,16.45-2.97c5.02-1.98,9.4-4.73,13.14-8.25,3.74-3.52,6.64-7.7,8.69-12.54,2.05-4.84,3.08-10.12,3.08-15.84s-1.03-10.98-3.08-15.79c-2.05-4.8-4.95-8.98-8.69-12.54ZM101.13,73.45c-1.36,3.26-3.25,6.12-5.67,8.58-2.42,2.46-5.28,4.34-8.58,5.67-3.3,1.32-6.89,1.98-10.78,1.98s-7.48-.66-10.78-1.98c-3.3-1.32-6.16-3.21-8.58-5.67-2.42-2.46-4.31-5.33-5.67-8.63-1.36-3.3-2.04-6.89-2.04-10.78s.68-7.57,2.04-10.83c1.36-3.26,3.26-6.12,5.72-8.58,2.46-2.46,5.32-4.34,8.58-5.67,3.26-1.32,6.84-1.98,10.73-1.98s7.48.66,10.78,1.98c3.3,1.32,6.16,3.21,8.58,5.67,2.42,2.46,4.31,5.32,5.67,8.58,1.36,3.26,2.04,6.88,2.04,10.83s-.68,7.57-2.04,10.83Z"/><path class="cls-1" d="M177.36,44.47c-3.7-1.83-7.9-2.75-12.59-2.75-5.13,0-9.66,1.01-13.58,3.02-2.33,1.2-4.32,2.71-6,4.51v-29.76h-13.75v81.62h13.75v-29.7c0-3.96.68-7.24,2.04-9.84,1.36-2.6,3.28-4.56,5.78-5.88,2.49-1.32,5.35-1.98,8.58-1.98,4.4,0,7.83,1.28,10.28,3.85,2.46,2.57,3.69,6.45,3.69,11.66v31.9h13.75v-33.66c0-5.94-1.06-10.8-3.19-14.57-2.13-3.78-5.04-6.58-8.75-8.42Z"/><path class="cls-1" d="M248.97,47.82c-4.66-4.07-11.24-6.1-19.75-6.1-4.69,0-9.22.6-13.58,1.81-4.36,1.21-8.12,3.03-11.28,5.45l5.39,10.01c2.2-1.83,4.89-3.26,8.08-4.29,3.19-1.03,6.43-1.54,9.73-1.54,4.91,0,8.58,1.12,11,3.36,2.42,2.24,3.63,5.37,3.63,9.4v.88h-15.18c-5.94,0-10.71.77-14.3,2.31-3.59,1.54-6.18,3.63-7.75,6.27-1.58,2.64-2.37,5.61-2.37,8.91s.9,6.4,2.7,9.08c1.8,2.68,4.34,4.77,7.64,6.27,3.3,1.5,7.15,2.25,11.55,2.25,5.21,0,9.52-.95,12.92-2.86,2.35-1.32,4.2-3.01,5.56-5.06v7.15h12.98v-34.43c0-8.51-2.33-14.79-6.98-18.87ZM236.43,89.57c-2.68,1.54-5.7,2.31-9.08,2.31s-6.27-.73-8.25-2.2c-1.98-1.47-2.97-3.45-2.97-5.94,0-2.2.81-4.05,2.42-5.55,1.61-1.5,4.77-2.25,9.46-2.25h14.19v6.82c-1.17,3.01-3.1,5.28-5.77,6.82Z"/><path class="cls-1" d="M319.47,44.47c-3.7-1.83-7.9-2.75-12.59-2.75-5.13,0-9.66,1.01-13.58,3.02-2.65,1.36-4.86,3.12-6.66,5.27v-7.63h-13.09v58.74h13.75v-29.7c0-3.96.68-7.24,2.04-9.84,1.36-2.6,3.28-4.56,5.78-5.88,2.49-1.32,5.35-1.98,8.58-1.98,4.4,0,7.83,1.28,10.28,3.85,2.46,2.57,3.69,6.45,3.69,11.66v31.9h13.75v-33.66c0-5.94-1.06-10.8-3.19-14.57-2.13-3.78-5.04-6.58-8.75-8.42Z"/><path class="cls-1" d="M391.09,47.82c-4.66-4.07-11.24-6.1-19.75-6.1-4.69,0-9.22.6-13.58,1.81-4.36,1.21-8.12,3.03-11.28,5.45l5.39,10.01c2.2-1.83,4.89-3.26,8.08-4.29,3.19-1.03,6.43-1.54,9.73-1.54,4.91,0,8.58,1.12,11,3.36,2.42,2.24,3.63,5.37,3.63,9.4v.88h-15.18c-5.94,0-10.71.77-14.3,2.31-3.59,1.54-6.18,3.63-7.75,6.27-1.58,2.64-2.37,5.61-2.37,8.91s.9,6.4,2.7,9.08c1.8,2.68,4.34,4.77,7.64,6.27,3.3,1.5,7.15,2.25,11.55,2.25,5.21,0,9.52-.95,12.92-2.86,2.35-1.32,4.2-3.01,5.56-5.06v7.15h12.98v-34.43c0-8.51-2.33-14.79-6.98-18.87ZM378.55,89.57c-2.68,1.54-5.7,2.31-9.08,2.31s-6.27-.73-8.25-2.2c-1.98-1.47-2.97-3.45-2.97-5.94,0-2.2.81-4.05,2.42-5.55,1.61-1.5,4.77-2.25,9.46-2.25h14.19v6.82c-1.17,3.01-3.1,5.28-5.77,6.82Z"/><path class="cls-1" d="M493.38,63.06c-2.68-1.54-5.65-2.79-8.91-3.74-3.26-.95-6.54-1.82-9.84-2.58-3.3-.77-6.29-1.56-8.96-2.37-2.68-.81-4.84-1.92-6.49-3.35-1.65-1.43-2.47-3.32-2.47-5.67,0-1.98.57-3.74,1.7-5.28s2.93-2.79,5.39-3.74c2.46-.95,5.67-1.43,9.62-1.43,3.37,0,6.89.5,10.56,1.49,3.67.99,7.22,2.51,10.67,4.56l4.51-11.11c-3.37-2.2-7.33-3.89-11.88-5.06-3.32-.86-6.65-1.39-10.01-1.62-7.08-13.99-22.87-23.15-22.87-23.15l4.2,25.17c-.86.3-1.71.62-2.5.98-4.58,2.09-7.99,4.88-10.23,8.36-.91,1.42-1.63,2.91-2.17,4.44l-36.77-21.72,28.24,33.53-4.41,14.47,12.79-12.29c.39,1.16.89,2.22,1.5,3.18,1.69,2.64,3.87,4.75,6.55,6.33,2.68,1.58,5.64,2.86,8.91,3.85,3.26.99,6.53,1.85,9.79,2.58,3.26.73,6.23,1.52,8.91,2.36,2.68.84,4.86,1.98,6.54,3.41,1.69,1.43,2.53,3.32,2.53,5.67,0,1.91-.59,3.61-1.76,5.12-1.17,1.5-3.01,2.7-5.5,3.58-2.49.88-5.76,1.32-9.79,1.32-4.77,0-9.42-.81-13.97-2.42-4.55-1.61-8.36-3.63-11.44-6.05l-4.95,11.11c3.23,2.71,7.59,4.93,13.09,6.66,5.5,1.72,11.26,2.58,17.27,2.58,7.04,0,12.87-1.04,17.49-3.14,4.62-2.09,8.05-4.88,10.29-8.36,2.23-3.48,3.35-7.28,3.35-11.38s-.82-7.37-2.47-10.01c-1.65-2.64-3.81-4.73-6.49-6.27Z"/><path class="cls-1" d="M561.14,44.47c-3.7-1.83-7.9-2.75-12.6-2.75-5.13,0-9.66,1.01-13.58,3.02-2.33,1.2-4.32,2.71-6,4.52v-29.76h-13.75v81.62h13.75v-29.7c0-3.96.68-7.24,2.04-9.84,1.36-2.6,3.28-4.56,5.78-5.88,2.49-1.32,5.35-1.98,8.58-1.98,4.4,0,7.83,1.28,10.29,3.85,2.46,2.57,3.68,6.45,3.68,11.66v31.9h13.75v-33.66c0-5.94-1.06-10.8-3.19-14.57-2.13-3.78-5.04-6.58-8.75-8.42Z"/><path class="cls-1" d="M632.75,47.82c-4.66-4.07-11.24-6.1-19.75-6.1-4.69,0-9.22.6-13.58,1.81-4.36,1.21-8.12,3.03-11.28,5.45l5.39,10.01c2.2-1.83,4.89-3.26,8.08-4.29,3.19-1.03,6.43-1.54,9.73-1.54,4.91,0,8.58,1.12,11,3.36,2.42,2.24,3.63,5.37,3.63,9.4v.88h-15.18c-5.94,0-10.71.77-14.3,2.31-3.59,1.54-6.18,3.63-7.75,6.27-1.58,2.64-2.37,5.61-2.37,8.91s.9,6.4,2.7,9.08c1.8,2.68,4.34,4.77,7.64,6.27,3.3,1.5,7.15,2.25,11.55,2.25,5.21,0,9.51-.95,12.92-2.86,2.35-1.32,4.2-3.01,5.55-5.06v7.15h12.98v-34.43c0-8.51-2.33-14.79-6.99-18.87ZM620.21,89.57c-2.68,1.54-5.7,2.31-9.08,2.31s-6.27-.73-8.25-2.2c-1.98-1.47-2.97-3.45-2.97-5.94,0-2.2.81-4.05,2.42-5.55,1.61-1.5,4.77-2.25,9.46-2.25h14.19v6.82c-1.17,3.01-3.1,5.28-5.78,6.82Z"/><path class="cls-1" d="M670.43,50.98v-8.61h-13.09v58.74h13.75v-28.49c0-6.01,1.54-10.54,4.62-13.58,3.08-3.04,7.22-4.56,12.43-4.56.51,0,1.03.02,1.54.05.51.04,1.06.13,1.65.28v-13.09c-5.65,0-10.36,1.03-14.13,3.08-2.82,1.53-5.07,3.59-6.76,6.18Z"/><polygon class="cls-1" points="747.32 101.12 764.04 101.12 737.22 66.99 761.73 42.38 745.23 42.38 716.74 68.72 716.74 19.5 702.99 19.5 702.99 101.12 716.74 101.12 716.74 85.64 726.96 75.96 747.32 101.12"/></g></svg>